<?xml version="1.0" standalone="no"?>
<!DOCTYPE svg PUBLIC "-//W3C//DTD SVG 20010904//EN"
 "http://www.w3.org/TR/2001/REC-SVG-20010904/DTD/svg10.dtd">
<svg version="1.0" xmlns="http://www.w3.org/2000/svg"
 width="500.000000pt" height="227.000000pt" viewBox="0 0 500.000000 227.000000"
 preserveAspectRatio="xMidYMid meet">

<g transform="translate(0.000000,227.000000) scale(0.100000,-0.100000)"
fill="#000000" stroke="none">
<path d="M2740 2195 c-193 -36 -388 -115 -467 -190 -41 -40 -43 -44 -43 -101
0 -111 50 -133 158 -69 78 47 205 100 300 126 108 29 322 37 415 15 261 -61
382 -264 349 -585 -23 -227 -79 -360 -201 -482 -119 -119 -234 -164 -447 -176
-148 -8 -164 -3 -164 45 0 117 91 617 150 822 36 127 38 155 8 174 -62 39
-189 26 -232 -24 -26 -32 -82 -244 -131 -500 -14 -74 -28 -146 -31 -159 l-5
-25 -13 25 c-15 29 -48 30 -184 5 -50 -9 -97 -14 -102 -11 -6 3 -10 18 -11 33
0 39 -39 134 -76 186 -85 120 -231 164 -386 116 -152 -47 -263 -182 -302 -368
-39 -181 6 -346 122 -452 68 -62 132 -85 238 -85 69 0 89 5 148 32 111 53 202
165 236 291 11 39 14 42 46 42 55 0 186 28 228 49 l40 20 -6 -42 c-44 -330
-37 -354 120 -377 205 -28 406 -21 570 21 165 42 348 151 452 270 103 118 185
301 211 474 17 108 14 308 -5 395 -58 261 -250 444 -525 500 -114 24 -343 26
-460 5z m-988 -1042 c4 -89 30 -152 85 -204 39 -39 40 -49 9 -114 -34 -73 -75
-107 -133 -112 -43 -5 -53 -2 -82 23 -53 44 -71 94 -71 201 0 135 34 221 104
264 17 10 43 19 57 19 26 0 27 -1 31 -77z"/>
<path d="M895 2183 c-424 -26 -657 -118 -742 -291 -72 -147 -18 -397 92 -418
46 -8 124 29 143 69 13 26 11 35 -12 87 -32 71 -33 122 -3 180 40 80 162 124
376 137 108 6 113 5 108 -13 -15 -49 -100 -501 -127 -675 -17 -107 -42 -261
-55 -344 -36 -228 -41 -305 -21 -342 34 -66 161 -81 225 -27 36 30 47 65 56
169 14 186 98 706 178 1120 l24 120 124 -3 c68 -1 198 -7 287 -13 90 -6 179
-8 198 -5 63 12 101 95 70 155 -29 56 -91 73 -326 91 -123 9 -471 11 -595 3z"/>
<path d="M4180 1426 c-160 -47 -277 -180 -315 -361 -38 -181 0 -349 104 -452
54 -54 99 -78 178 -93 194 -38 389 90 453 298 16 51 21 57 46 60 140 13 248
44 271 78 18 28 20 111 4 143 -15 26 -38 27 -161 1 -132 -27 -127 -28 -135 29
-15 111 -98 231 -190 276 -65 32 -184 42 -255 21z m106 -264 c2 -83 29 -151
85 -207 l39 -41 -15 -51 c-48 -162 -209 -194 -276 -56 -19 40 -23 63 -23 138
1 101 13 156 47 206 28 42 82 79 116 79 25 0 26 -2 27 -68z"/>
<path d="M818 334 c-5 -4 -8 -54 -8 -111 l0 -103 75 0 c91 0 101 18 13 22
l-63 3 -5 98 c-3 55 -8 95 -12 91z"/>
<path d="M1066 331 c-7 -11 18 -33 27 -24 4 3 7 12 7 20 0 15 -26 18 -34 4z"/>
<path d="M1440 310 c0 -25 -4 -30 -25 -30 -14 0 -25 -4 -25 -10 0 -5 9 -10 20
-10 18 0 20 -7 20 -58 0 -32 5 -63 12 -70 17 -17 63 -15 78 3 10 13 7 14 -26
12 l-39 -2 0 55 c0 53 1 55 28 58 34 4 36 22 2 22 -21 0 -25 5 -25 30 0 17 -4
30 -10 30 -5 0 -10 -13 -10 -30z"/>
<path d="M2160 230 c0 -67 4 -110 10 -110 6 0 10 23 10 50 l0 50 41 0 c61 0
79 14 79 61 0 33 -4 41 -26 49 -14 6 -45 10 -70 10 l-44 0 0 -110z m114 75
c10 -11 13 -22 7 -38 -7 -18 -17 -23 -55 -25 l-46 -3 0 40 c0 41 0 41 39 41
22 0 46 -7 55 -15z"/>
<path d="M2590 310 c0 -25 -4 -30 -25 -30 -14 0 -25 -4 -25 -10 0 -5 9 -10 20
-10 18 0 20 -7 20 -58 0 -32 5 -63 12 -70 17 -17 63 -15 78 3 10 13 7 14 -26
12 l-39 -2 0 55 c0 53 1 55 28 58 34 4 36 22 2 22 -21 0 -25 5 -25 30 0 17 -4
30 -10 30 -5 0 -10 -13 -10 -30z"/>
<path d="M2930 230 c0 -67 4 -110 10 -110 6 0 10 23 10 50 l0 50 41 0 c61 0
79 14 79 61 0 33 -4 41 -26 49 -14 6 -45 10 -70 10 l-44 0 0 -110z m114 74
c19 -18 19 -20 6 -45 -8 -14 -21 -19 -55 -19 l-45 0 0 40 c0 40 0 40 39 40 23
0 46 -7 55 -16z"/>
<path d="M3592 324 c4 -21 22 -23 26 -1 2 10 -3 17 -13 17 -10 0 -15 -6 -13
-16z"/>
<path d="M4125 310 c-5 -21 -13 -30 -26 -30 -10 0 -19 -4 -19 -10 0 -5 10 -10
21 -10 20 0 21 -4 17 -50 -7 -73 22 -105 76 -84 27 10 18 24 -12 18 -40 -8
-53 12 -44 67 6 38 11 44 35 47 37 5 34 22 -4 22 -30 0 -31 2 -25 30 3 17 1
30 -3 30 -5 0 -12 -13 -16 -30z"/>
<path d="M1030 270 c0 -5 9 -10 20 -10 18 0 20 -7 20 -60 0 -57 -1 -60 -25
-60 -14 0 -25 -4 -25 -10 0 -6 27 -10 60 -10 33 0 60 4 60 10 0 6 -11 10 -25
10 -24 0 -25 2 -25 70 l0 70 -30 0 c-16 0 -30 -4 -30 -10z"/>
<path d="M1223 273 c-7 -2 -13 -15 -13 -28 0 -28 15 -41 60 -50 47 -10 64 -24
49 -41 -16 -19 -69 -17 -91 3 -25 22 -36 8 -13 -17 35 -38 135 -20 135 24 0
20 -24 36 -72 51 -24 7 -43 18 -43 26 0 18 61 25 80 9 9 -7 15 -7 19 -1 14 22
-71 41 -111 24z"/>
<path d="M2367 262 c-11 -12 -17 -36 -17 -65 0 -53 23 -77 75 -77 35 0 74 23
57 34 -6 3 -13 2 -17 -4 -9 -14 -68 -13 -83 2 -7 7 -12 20 -12 30 0 15 9 18
65 18 58 0 65 2 65 20 0 53 -96 83 -133 42z m101 -14 c22 -22 13 -28 -43 -28
-30 0 -55 4 -55 8 0 17 25 32 55 32 17 0 36 -5 43 -12z"/>
<path d="M3120 200 c0 -47 4 -80 10 -80 6 0 10 22 10 48 0 59 31 96 77 91 15
-2 30 1 33 6 9 19 -71 17 -91 -1 -17 -16 -19 -16 -19 -1 0 10 -4 17 -10 17 -6
0 -10 -33 -10 -80z"/>
<path d="M3326 258 c-23 -32 -20 -94 4 -118 24 -24 82 -27 104 -4 21 20 30 58
22 88 -9 38 -34 56 -76 56 -29 0 -43 -6 -54 -22z m104 -17 c15 -29 12 -67 -6
-85 -18 -19 -65 -21 -82 -4 -16 16 -16 80 0 96 20 20 76 15 88 -7z"/>
<path d="M3550 270 c0 -5 14 -10 30 -10 l30 0 0 -80 c0 -87 -12 -106 -51 -82
-38 24 -42 1 -4 -24 23 -15 27 -15 50 0 24 16 25 21 25 111 l0 95 -40 0 c-22
0 -40 -4 -40 -10z"/>
<path d="M3718 269 c-34 -19 -35 -101 -2 -134 18 -17 76 -20 105 -4 29 15 13
29 -19 17 -34 -13 -78 -4 -86 18 -10 27 3 34 65 34 55 0 59 1 59 23 0 13 -8
31 -18 40 -20 19 -77 22 -104 6z m90 -21 c22 -22 13 -28 -43 -28 -53 0 -55 1
-45 20 12 23 68 28 88 8z"/>
<path d="M3904 259 c-24 -26 -23 -92 1 -119 22 -24 82 -27 111 -5 17 13 14 14
-32 8 -48 -5 -53 -3 -69 20 -23 36 -12 85 21 93 13 3 41 3 62 0 34 -6 36 -5
18 9 -29 22 -89 19 -112 -6z"/>
<path d="M1790 210 c0 -6 27 -10 60 -10 33 0 60 4 60 10 0 6 -27 10 -60 10
-33 0 -60 -4 -60 -10z"/>
</g>
</svg>
